<svg width="226.8474365234375px" height="156.807470703125px" xmlns="http://www.w3.org/2000/svg" viewBox="136.57628173828124 -3.403735351562503 226.8474365234375 156.807470703125" style="background:#596886" preserveAspectRatio="xMidYMid"><defs><filter id="editing-hover" x="-100%" y="-100%" width="300%" height="300%"><feFlood flood-color="#052b4a" result="flood"></feFlood><feComposite operator="in" in2="SourceAlpha" in="flood" result="shadow"></feComposite><feOffset dx="-4" dy="-4" in="SourceGraphic" result="offset-1"></feOffset><feOffset dx="4" dy="4" in="shadow" result="offset-2"></feOffset><feMerge><feMergeNode in="offset-2"></feMergeNode><feMergeNode in="offset-1"></feMergeNode></feMerge></filter></defs><g filter="url(#editing-hover)"><g transform="translate(173.56999492645264, 105.625)"><path d="M2.87-20.71L2.87-20.71L2.87-20.71Q2.87-38.28 11.14-48.72L11.14-48.72L11.14-48.72Q19.40-59.16 33.58-59.16L33.58-59.16L33.58-59.16Q41.15-59.16 45.50-53.51L45.50-53.51L45.50-53.51Q49.85-47.85 49.85-38.41L49.85-38.41L49.85-38.41Q49.85-28.97 47.72-21.62L47.72-21.62L47.72-21.62Q45.59-14.27 41.76-9.05L41.76-9.05L41.76-9.05Q33.76 1.83 20.45 1.83L20.45 1.83L20.45 1.83Q11.48 1.83 7.18-3.70L7.18-3.70L7.18-3.70Q2.87-9.22 2.87-20.71ZM18.27-14.79L18.27-14.79L18.27-14.79Q18.27-6.00 21.14-6.00L21.14-6.00L21.14-6.00Q23.75-6.00 26.14-9.05L26.14-9.05L26.14-9.05Q28.54-12.09 30.45-17.23L30.45-17.23L30.45-17.23Q34.54-28.45 34.54-42.37L34.54-42.37L34.54-42.37Q34.54-47.07 33.80-49.20L33.80-49.20L33.80-49.20Q33.06-51.33 31.10-51.33L31.10-51.33L31.10-51.33Q29.15-51.33 26.84-47.94L26.84-47.94L26.84-47.94Q24.53-44.54 22.62-39.24L22.62-39.24L22.62-39.24Q18.27-27.14 18.27-14.79ZM57.77-12.88L57.77-12.88L57.77-12.88Q60.38-9.48 66.56-9.48L66.56-9.48L66.56-9.48Q74.65-9.48 79.17-15.14L79.17-15.14L79.17-15.14Q82.22-19.05 83.61-26.10L83.61-26.10L83.61-26.10Q81.34-22.36 78.34-20.40L78.34-20.40L78.34-20.40Q75.34-18.44 71.17-18.44L71.17-18.44L71.17-18.44Q66.99-18.44 64.34-19.92L64.34-19.92L64.34-19.92Q61.68-21.40 60.03-23.84L60.03-23.84L60.03-23.84Q56.90-28.36 56.90-34.80L56.90-34.80L56.90-34.80Q56.90-41.24 59.16-45.76L59.16-45.76L59.16-45.76Q61.42-50.29 65.08-53.33L65.08-53.33L65.08-53.33Q72.21-59.42 81.69-59.42L81.69-59.42L81.69-59.42Q89.96-59.42 95.00-54.03L95.00-54.03L95.00-54.03Q100.22-48.29 100.22-38.02L100.22-38.02L100.22-38.02Q100.22-31.15 97.88-24.10L97.88-24.10L97.88-24.10Q95.53-17.05 91.26-11.31L91.26-11.31L91.26-11.31Q87-5.57 81.17-1.91L81.17-1.91L81.17-1.91Q75.34 1.74 68.73 1.74L68.73 1.74L68.73 1.74Q62.12 1.74 58.38-0.35L58.38-0.35L58.38-0.35Q54.64-2.44 54.64-6.26L54.64-6.26L54.64-6.26Q54.64-10.44 57.77-12.88ZM73.60-44.02L73.60-44.02L73.60-44.02Q72.82-41.67 72.51-39.28L72.51-39.28L72.51-39.28Q72.21-36.89 72.21-34.54L72.21-34.54L72.21-34.54Q72.21-32.19 73.56-30.02L73.56-30.02L73.56-30.02Q74.91-27.84 76.73-27.84L76.73-27.84L76.73-27.84Q78.56-27.84 80.00-28.88L80.00-28.88L80.00-28.88Q81.43-29.93 82.65-31.76L82.65-31.76L82.65-31.76Q85.17-35.76 85.17-40.54L85.17-40.54L85.17-40.54Q85.17-45.33 83.65-47.55L83.65-47.55L83.65-47.55Q82.13-49.76 79.69-49.76L79.69-49.76L79.69-49.76Q77.26-49.76 75.82-48.07L75.82-48.07L75.82-48.07Q74.39-46.37 73.60-44.02ZM107.53-12.88L107.53-12.88L107.53-12.88Q110.14-9.48 116.32-9.48L116.32-9.48L116.32-9.48Q124.41-9.48 128.93-15.14L128.93-15.14L128.93-15.14Q131.98-19.05 133.37-26.10L133.37-26.10L133.37-26.10Q131.11-22.36 128.11-20.40L128.11-20.40L128.11-20.40Q125.11-18.44 120.93-18.44L120.93-18.44L120.93-18.44Q116.75-18.44 114.10-19.92L114.10-19.92L114.10-19.92Q111.45-21.40 109.79-23.84L109.79-23.84L109.79-23.84Q106.66-28.36 106.66-34.80L106.66-34.80L106.66-34.80Q106.66-41.24 108.92-45.76L108.92-45.76L108.92-45.76Q111.19-50.29 114.84-53.33L114.84-53.33L114.84-53.33Q121.97-59.42 131.46-59.42L131.46-59.42L131.46-59.42Q139.72-59.42 144.77-54.03L144.77-54.03L144.77-54.03Q149.99-48.29 149.99-38.02L149.99-38.02L149.99-38.02Q149.99-31.15 147.64-24.10L147.64-24.10L147.64-24.10Q145.29-17.05 141.03-11.31L141.03-11.31L141.03-11.31Q136.76-5.57 130.94-1.91L130.94-1.91L130.94-1.91Q125.11 1.74 118.49 1.74L118.49 1.74L118.49 1.74Q111.88 1.74 108.14-0.35L108.14-0.35L108.14-0.35Q104.40-2.44 104.40-6.26L104.40-6.26L104.40-6.26Q104.40-10.44 107.53-12.88ZM123.37-44.02L123.37-44.02L123.37-44.02Q122.58-41.67 122.28-39.28L122.28-39.28L122.28-39.28Q121.97-36.89 121.97-34.54L121.97-34.54L121.97-34.54Q121.97-32.19 123.32-30.02L123.32-30.02L123.32-30.02Q124.67-27.84 126.50-27.84L126.50-27.84L126.50-27.84Q128.33-27.84 129.76-28.88L129.76-28.88L129.76-28.88Q131.20-29.93 132.41-31.76L132.41-31.76L132.41-31.76Q134.94-35.76 134.94-40.54L134.94-40.54L134.94-40.54Q134.94-45.33 133.41-47.55L133.41-47.55L133.41-47.55Q131.89-49.76 129.46-49.76L129.46-49.76L129.46-49.76Q127.02-49.76 125.58-48.07L125.58-48.07L125.58-48.07Q124.15-46.37 123.37-44.02Z" fill="#ffd5af"></path></g></g><style>text {
  font-size: 64px;
  font-family: Arial Black;
  dominant-baseline: central;
  text-anchor: middle;
}</style></svg>