<svg xmlns="http://www.w3.org/2000/svg" style="background:0 0" width="172.15" height="122.021" preserveAspectRatio="xMidYMid" viewBox="163.925 13.989 172.15 122.021"><defs><linearGradient id="editing-outline-gradient" x1="-.414" x2="1.414" y1=".093" y2=".907"><stop offset="0" stop-color="#ee4208"/><stop offset="1" stop-color="#4139ff"/></linearGradient><filter id="editing-outline" width="300%" height="300%" x="-100%" y="-100%"><feMorphology in="SourceGraphic" operator="dilate" radius="1" result="outline"/><feComposite in="outline" in2="SourceAlpha" operator="out"/></filter></defs><g filter="url(#editing-outline)"><g><path fill="url(#editing-outline-gradient)" d="M2.11-15.23L2.11-15.23L2.11-15.23Q2.11-28.16 8.19-35.84L8.19-35.84L8.19-35.84Q14.27-43.52 24.70-43.52L24.70-43.52L24.70-43.52Q30.27-43.52 33.47-39.36L33.47-39.36L33.47-39.36Q36.67-35.20 36.67-28.26L36.67-28.26L36.67-28.26Q36.67-21.31 35.10-15.90L35.10-15.90L35.10-15.90Q33.54-10.50 30.72-6.66L30.72-6.66L30.72-6.66Q24.83 1.34 15.04 1.34L15.04 1.34L15.04 1.34Q8.45 1.34 5.28-2.72L5.28-2.72L5.28-2.72Q2.11-6.78 2.11-15.23ZM13.44-10.88L13.44-10.88L13.44-10.88Q13.44-4.42 15.55-4.42L15.55-4.42L15.55-4.42Q17.47-4.42 19.23-6.66L19.23-6.66L19.23-6.66Q20.99-8.90 22.40-12.67L22.40-12.67L22.40-12.67Q25.41-20.93 25.41-31.17L25.41-31.17L25.41-31.17Q25.41-34.62 24.86-36.19L24.86-36.19L24.86-36.19Q24.32-37.76 22.88-37.76L22.88-37.76L22.88-37.76Q21.44-37.76 19.74-35.26L19.74-35.26L19.74-35.26Q18.05-32.77 16.64-28.86L16.64-28.86L16.64-28.86Q13.44-19.97 13.44-10.88ZM42.50-9.47L42.50-9.47L42.50-9.47Q44.42-6.98 48.96-6.98L48.96-6.98L48.96-6.98Q54.91-6.98 58.24-11.14L58.24-11.14L58.24-11.14Q60.48-14.02 61.50-19.20L61.50-19.20L61.50-19.20Q59.84-16.45 57.63-15.01L57.63-15.01L57.63-15.01Q55.42-13.57 52.35-13.57L52.35-13.57L52.35-13.57Q49.28-13.57 47.33-14.66L47.33-14.66L47.33-14.66Q45.38-15.74 44.16-17.54L44.16-17.54L44.16-17.54Q41.86-20.86 41.86-25.60L41.86-25.60L41.86-25.60Q41.86-30.34 43.52-33.66L43.52-33.66L43.52-33.66Q45.18-36.99 47.87-39.23L47.87-39.23L47.87-39.23Q53.12-43.71 60.10-43.71L60.10-43.71L60.10-43.71Q66.18-43.71 69.89-39.74L69.89-39.74L69.89-39.74Q73.73-35.52 73.73-27.97L73.73-27.97L73.73-27.97Q73.73-22.91 72-17.73L72-17.73L72-17.73Q70.27-12.54 67.14-8.32L67.14-8.32L67.14-8.32Q64-4.10 59.71-1.41L59.71-1.41L59.71-1.41Q55.42 1.28 50.56 1.28L50.56 1.28L50.56 1.28Q45.70 1.28 42.94-0.26L42.94-0.26L42.94-0.26Q40.19-1.79 40.19-4.61L40.19-4.61L40.19-4.61Q40.19-7.68 42.50-9.47ZM54.14-32.38L54.14-32.38L54.14-32.38Q53.57-30.66 53.34-28.90L53.34-28.90L53.34-28.90Q53.12-27.14 53.12-25.41L53.12-25.41L53.12-25.41Q53.12-23.68 54.11-22.08L54.11-22.08L54.11-22.08Q55.10-20.48 56.45-20.48L56.45-20.48L56.45-20.48Q57.79-20.48 58.85-21.25L58.85-21.25L58.85-21.25Q59.90-22.02 60.80-23.36L60.80-23.36L60.80-23.36Q62.66-26.30 62.66-29.82L62.66-29.82L62.66-29.82Q62.66-33.34 61.54-34.98L61.54-34.98L61.54-34.98Q60.42-36.61 58.62-36.61L58.62-36.61L58.62-36.61Q56.83-36.61 55.78-35.36L55.78-35.36L55.78-35.36Q54.72-34.11 54.14-32.38ZM79.10-9.47L79.10-9.47L79.10-9.47Q81.02-6.98 85.57-6.98L85.57-6.98L85.57-6.98Q91.52-6.98 94.85-11.14L94.85-11.14L94.85-11.14Q97.09-14.02 98.11-19.20L98.11-19.20L98.11-19.20Q96.45-16.45 94.24-15.01L94.24-15.01L94.24-15.01Q92.03-13.57 88.96-13.57L88.96-13.57L88.96-13.57Q85.89-13.57 83.94-14.66L83.94-14.66L83.94-14.66Q81.98-15.74 80.77-17.54L80.77-17.54L80.77-17.54Q78.46-20.86 78.46-25.60L78.46-25.60L78.46-25.60Q78.46-30.34 80.13-33.66L80.13-33.66L80.13-33.66Q81.79-36.99 84.48-39.23L84.48-39.23L84.48-39.23Q89.73-43.71 96.70-43.71L96.70-43.71L96.70-43.71Q102.78-43.71 106.50-39.74L106.50-39.74L106.50-39.74Q110.34-35.52 110.34-27.97L110.34-27.97L110.34-27.97Q110.34-22.91 108.61-17.73L108.61-17.73L108.61-17.73Q106.88-12.54 103.74-8.32L103.74-8.32L103.74-8.32Q100.61-4.10 96.32-1.41L96.32-1.41L96.32-1.41Q92.03 1.28 87.17 1.28L87.17 1.28L87.17 1.28Q82.30 1.28 79.55-0.26L79.55-0.26L79.55-0.26Q76.80-1.79 76.80-4.61L76.80-4.61L76.80-4.61Q76.80-7.68 79.10-9.47ZM90.75-32.38L90.75-32.38L90.75-32.38Q90.18-30.66 89.95-28.90L89.95-28.90L89.95-28.90Q89.73-27.14 89.73-25.41L89.73-25.41L89.73-25.41Q89.73-23.68 90.72-22.08L90.72-22.08L90.72-22.08Q91.71-20.48 93.06-20.48L93.06-20.48L93.06-20.48Q94.40-20.48 95.46-21.25L95.46-21.25L95.46-21.25Q96.51-22.02 97.41-23.36L97.41-23.36L97.41-23.36Q99.26-26.30 99.26-29.82L99.26-29.82L99.26-29.82Q99.26-33.34 98.14-34.98L98.14-34.98L98.14-34.98Q97.02-36.61 95.23-36.61L95.23-36.61L95.23-36.61Q93.44-36.61 92.38-35.36L92.38-35.36L92.38-35.36Q91.33-34.11 90.75-32.38Z" transform="translate(193.77500224113464, 97.51718711853027)"/></g></g><style/></svg>